<svg width="117" height="38" viewBox="0 0 117 38" fill="none" xmlns="http://www.w3.org/2000/svg">
<path d="M10.4 29.8C16.1438 29.8 20.8 25.1438 20.8 19.4C20.8 13.6562 16.1438 9 10.4 9C4.65624 9 0 13.6562 0 19.4C0 25.1438 4.65624 29.8 10.4 29.8Z" fill="#D61C4E"/>
<path d="M58 38C68.4934 38 77 29.4934 77 19C77 8.50659 68.4934 0 58 0C47.5066 0 39 8.50659 39 19C39 29.4934 47.5066 38 58 38Z" fill="#D61C4E" fill-opacity="0.4"/>
<path d="M106.5 29.8C112.244 29.8 116.9 25.1438 116.9 19.4C116.9 13.6562 112.244 9 106.5 9C100.756 9 96.1 13.6562 96.1 19.4C96.1 25.1438 100.756 29.8 106.5 29.8Z" fill="#D61C4E"/>
<path d="M58.4 29.8C64.1438 29.8 68.8 25.1438 68.8 19.4C68.8 13.6562 64.1438 9 58.4 9C52.6562 9 48 13.6562 48 19.4C48 25.1438 52.6562 29.8 58.4 29.8Z" fill="#D61C4E"/>
</svg>
