<svg width="70" height="70" viewBox="0 0 70 70" fill="none" xmlns="http://www.w3.org/2000/svg">
<circle cx="35" cy="35" r="35" fill="#D61C4E" fill-opacity="0.9"/>
<path d="M42.8366 34.9394H41.4523C41.1656 34.9394 40.9332 35.1718 40.9332 35.4585V41.7699C40.9332 42.1049 40.6605 42.3774 40.3255 42.3774H28.2298C27.8949 42.3774 27.6225 42.1049 27.6225 41.7699V29.6744C27.6225 29.3393 27.8949 29.0667 28.2298 29.0667H34.8644C35.1511 29.0667 35.3835 28.8342 35.3835 28.5476V27.1633C35.3835 26.8766 35.1511 26.6442 34.8644 26.6442H28.2298C26.5591 26.6442 25.2 28.0035 25.2 29.6744V41.7699C25.2 43.4408 26.5592 44.8 28.2298 44.8H40.3255C41.9963 44.8 43.3556 43.4407 43.3556 41.7699V35.4586C43.3557 35.1718 43.1232 34.9394 42.8366 34.9394Z" fill="white"/>
<path d="M44.2806 25.2H38.7744C38.4877 25.2 38.2553 25.4324 38.2553 25.7191V27.1033C38.2553 27.39 38.4877 27.6225 38.7744 27.6225H40.6642L33.5528 34.7338C33.3501 34.9365 33.3501 35.2651 33.5528 35.4679L34.5316 36.4468C34.629 36.5442 34.761 36.5989 34.8987 36.5989C35.0364 36.5989 35.1685 36.5442 35.2658 36.4468L42.3772 29.3354V31.2251C42.3772 31.5118 42.6097 31.7442 42.8963 31.7442H44.2806C44.5673 31.7442 44.7997 31.5118 44.7997 31.2251V25.7191C44.7997 25.4324 44.5673 25.2 44.2806 25.2Z" fill="white"/>
</svg>
