<svg width="608" height="55" viewBox="0 0 608 55" fill="none" xmlns="http://www.w3.org/2000/svg">
<path fill-rule="evenodd" clip-rule="evenodd" d="M363.89 25.2528C283.139 26.2229 202.349 30.0713 121.951 36.9501C83.7268 40.2212 39.3373 39.8123 2.26485 50.9644C0.417622 51.5256 0.76942 53.2092 0.809403 53.3776C0.88937 53.7224 1.22531 54.8688 2.6967 54.9249C2.85663 54.9329 3.98408 54.7726 4.4159 54.7164C15.3633 53.2733 26.2708 51.5898 37.2262 50.2269C75.0504 45.5046 112.987 41.9369 150.979 38.8102C201.406 34.6572 252.264 32.4444 302.827 30.7126C330.504 29.7666 358.844 31.0252 386.608 29.069C396.804 29.0129 407 29.005 417.195 29.0371C459.818 29.1894 502.392 30.8089 544.942 33.0297C558.624 33.7433 569.06 34.5129 582.454 35.0341C587.54 35.2345 595.609 35.3708 601.222 35.459C602.046 35.475 604.149 35.4909 605.021 35.4989C605.109 35.515 605.197 35.515 605.293 35.515C605.629 35.515 605.788 35.4909 605.82 35.4909C607.724 35.2103 607.548 33.4064 607.5 33.1339C607.492 33.0777 607.204 31.5544 605.565 31.4983C605.173 31.4823 602.366 31.4664 601.286 31.4503C595.705 31.3621 587.668 31.2258 582.606 31.0334C569.236 30.5123 558.808 29.7426 545.15 29.0291C502.536 26.8083 459.897 25.1808 417.211 25.0285C411.998 25.0124 406.776 25.0044 401.562 25.0124C401.386 24.5554 400.994 24.0423 400.131 23.8178C399.323 23.6094 393.541 23.425 391.31 23.2406C374.797 21.8777 375.285 21.9418 357.116 20.8274C329.6 19.1357 325.41 18.7507 296.79 18.0372C244.803 16.7384 192.793 16.8427 140.799 16.971C115.13 17.0432 87.6451 18.7829 61.584 15.5359C70.1724 14.5257 78.7928 13.7881 87.3972 12.9463C116.777 10.0761 146.181 8.29619 175.68 7.04549C246.443 4.04701 317.317 2.85252 388.055 6.94135C372.998 7.08567 357.948 7.42229 342.89 7.63876C281.596 8.5367 220.014 5.76682 158.847 10.4249C157.752 10.513 156.624 13.5716 156.704 14.6699C156.784 15.7763 157.752 16.6022 158.847 16.522C219.934 11.8639 281.732 12.5453 342.946 11.6474C365.689 11.3187 388.423 10.7255 411.166 10.9018C418.971 10.966 426.775 11.2546 434.58 11.3509C436.123 11.3749 440.098 11.6796 440.666 11.5513C441.921 11.2707 442.193 10.3406 442.273 9.88365C442.313 9.61106 442.441 8.03967 440.522 7.47845C427.423 3.64617 403.249 3.82255 390.519 3.06892C318.908 -1.18026 247.154 0.00627828 175.512 3.03682C145.941 4.29554 116.465 6.08352 87.0054 8.96174C76.7137 9.9639 66.398 10.8297 56.1463 12.1606C54.491 12.3771 50.7726 12.6898 48.9733 13.0185C48.2216 13.1548 47.6778 13.3471 47.4379 13.4834C46.5023 14.0125 46.3344 14.7822 46.3344 15.3033C46.3264 15.7042 46.4943 17.1152 48.4535 17.5001C78.305 23.3607 110.787 21.0598 140.807 20.9797C192.769 20.8514 244.739 20.747 296.694 22.0458C325.242 22.7594 329.416 23.1364 356.877 24.828C359.587 24.9884 361.882 25.1325 363.89 25.2528Z" fill="#D61C4E"/>
</svg>
