<svg width="512" height="512" viewBox="0 0 512 512" fill="none" xmlns="http://www.w3.org/2000/svg">
<path d="M512 512V430.872H450.231L418.43 395.708L386.467 430.872H182.812V266.984H117.08L198.613 82.4663H277.244L305.313 145.679V82.4673H402.644L419.543 130.102L436.552 82.4673H512.001V0H0V512H512ZM460.636 410.353H512L444.055 338.301L512 267.067H461.453L419.493 312.92L377.936 267.067H326.56L394.108 338.711L326.56 410.354H376.507L418.673 364.093L460.636 410.353ZM472.653 338.361L512 380.221V296.85L472.653 338.361ZM243.659 377.193V354.88H324.511V322.538H243.659V300.228H326.557V267.066H204.561V410.352H326.557V377.192H243.659V377.193ZM473.311 246.273H512V102.987H451.818L419.68 192.232L387.749 102.987H326.546V246.273H365.232V145.973L402.079 246.273H436.465L473.311 145.766V246.273ZM282.538 246.273H326.547L263.299 102.987H212.943L149.689 246.273H192.676L204.55 217.617H270.46L282.538 246.273ZM256.953 185.478H218.058L237.505 138.604L256.953 185.478Z" fill="#297DFC"/>
</svg>
