<svg width="512" height="112" viewBox="0 0 512 112" fill="none" xmlns="http://www.w3.org/2000/svg">
<path d="M83.379 49.5539C82.484 50.9919 84.062 52.7069 85.47 51.8249L121.271 29.3949C122.045 28.9099 122.274 27.8279 121.743 27.0659C110.683 11.2059 90.516 0.379883 65.64 0.379883C29.386 0.380883 0 25.2819 0 55.9999C0 86.8269 29.503 111.62 65.64 111.62C88.185 111.62 108.371 102.509 119.908 87.3369C120.606 86.4189 120.052 85.4389 119.567 83.7909C119.201 82.5469 117.656 82.2349 116.884 83.2549C112.455 89.1059 99.859 103.039 80.327 103.039C63.595 103.039 48.56 93.6049 40.361 79.5419C17.303 40.1319 54.978 -10.4191 98.786 17.3019C99.53 17.7729 99.744 18.8009 99.269 19.5639L83.379 49.5539Z" fill="#FF0000"/>
<path d="M124.37 81.7009C124.37 97.2269 139.808 109.812 158.853 109.812C174.77 109.812 188.169 101.02 192.14 89.0659L197.384 107.414C197.791 108.837 199.042 109.812 200.462 109.812H224.68C226.449 109.812 227.72 108.031 227.216 106.256C224.941 98.2399 209.071 42.3119 206.82 34.3799C206.82 34.3799 198.727 11.3259 173.192 21.0459C160.102 26.0289 152.209 29.4069 147.625 31.5159C146.208 32.1679 146.662 34.3799 148.21 34.3799H173.655C175.347 34.3799 176.839 35.5419 177.324 37.2379L184.721 63.1129C178.402 57.2729 169.155 53.5899 158.852 53.5899C139.905 53.5899 124.37 66.0879 124.37 81.7009ZM172.551 64.1429C182.073 64.1429 189.847 72.2059 189.847 82.2389C189.847 92.5609 181.586 100.866 171.603 100.309C161.766 99.7599 153.899 90.2919 155.446 79.5259C156.698 70.8189 163.879 64.1429 172.551 64.1429Z" fill="#FF0000"/>
<path d="M285.013 106.636C285.013 108.39 286.372 109.812 288.048 109.812H313.318C314.822 109.812 316.042 108.536 316.042 106.962C316.042 98.7898 316.042 42.2748 316.042 34.4978C315.807 25.7418 308.952 18.7188 300.527 18.7188C292.905 18.7188 282.05 25.7988 270.903 32.2318C269.832 32.8498 268.46 32.2668 268.174 31.0228C266.549 23.9558 260.97 18.7198 253.697 18.7198C247.315 18.7198 231.98 27.4078 224.569 31.8418C223.412 32.5338 223.884 34.3798 225.218 34.3798H236.204C237.297 34.3798 238.183 35.3068 238.183 36.4498C238.183 43.2828 238.183 98.1887 238.183 107.748C238.183 108.887 239.066 109.811 240.155 109.811H266.185C267.539 109.811 268.636 108.663 268.636 107.247C268.636 107.218 268.634 40.0488 268.639 40.0198C272.012 30.9888 285.013 33.3508 285.013 43.6508C285.013 64.3348 285.013 88.4527 285.013 106.636Z" fill="#FF0000"/>
<path d="M370.773 111.619C395.451 111.619 415.46 90.691 415.46 64.867C415.46 39.046 395.454 18.116 370.773 18.116C340.286 18.116 318.814 49.385 328.325 79.515C334.202 98.164 350.985 111.619 370.773 111.619ZM362.871 22.805C368.747 22.805 373.588 27.448 374.222 33.42C391.961 96.852 390.86 92.521 390.86 94.021C390.86 100.62 385.747 105.969 379.439 105.969C373.269 105.969 368.242 100.848 368.159 94.449C362.672 75.466 364.301 81.101 350.796 34.38C351.504 28.493 357.052 22.805 362.871 22.805Z" fill="#FF0000"/>
<path d="M480.971 106.636C480.971 108.39 482.33 109.812 484.006 109.812H509.276C510.78 109.812 512 108.536 512 106.962C512 98.7898 512 42.2748 512 34.4978C511.765 25.7418 504.91 18.7188 496.485 18.7188C488.863 18.7188 478.008 25.7988 466.861 32.2318C465.79 32.8498 464.418 32.2668 464.132 31.0228C462.507 23.9558 456.928 18.7198 449.655 18.7198C443.273 18.7198 427.938 27.4078 420.527 31.8418C419.37 32.5338 419.842 34.3798 421.176 34.3798H432.162C433.255 34.3798 434.141 35.3068 434.141 36.4498C434.141 43.2828 434.141 98.1887 434.141 107.748C434.141 108.887 435.024 109.811 436.113 109.811H462.143C463.497 109.811 464.594 108.663 464.594 107.247C464.594 107.218 464.592 40.0478 464.597 40.0198C467.97 30.9888 480.971 33.3508 480.971 43.6508C480.971 64.3348 480.971 88.4527 480.971 106.636Z" fill="#FF0000"/>
</svg>
