<svg width="344" height="512" viewBox="0 0 344 512" fill="none" xmlns="http://www.w3.org/2000/svg">
<path d="M172.599 256C172.599 208.872 210.804 170.667 257.932 170.667C305.06 170.667 343.265 208.873 343.265 256C343.265 303.129 305.059 341.333 257.932 341.333C210.803 341.333 172.599 303.128 172.599 256Z" fill="#19BAFE"/>
<path d="M1.93188 426.667C1.93188 379.539 40.1369 341.334 87.2649 341.334H132H172.598V426.667C172.598 473.796 134.393 512 87.2649 512C40.1369 512 1.93188 473.795 1.93188 426.667Z" fill="#09CF82"/>
<path d="M172.599 0L172.599 80.5L172.599 170.666H256.735C303.864 170.666 342.068 132.461 342.068 85.333C342.068 38.205 303.863 0 256.735 0H172.599Z" fill="#FF7261"/>
<path d="M0.733887 85.333C0.733887 132.461 38.9389 170.666 86.0669 170.666H172.597V0H86.0659C38.9389 0 0.733887 38.205 0.733887 85.333Z" fill="#F34E1E"/>
<path d="M1.93188 256C1.93188 303.129 40.1369 341.333 87.2649 341.333H172.598V170.666H87.2649C40.1369 170.666 1.93188 208.872 1.93188 256Z" fill="#A158FF"/>
</svg>
