<svg width="512" height="370" viewBox="0 0 512 370" fill="none" xmlns="http://www.w3.org/2000/svg">
<path d="M13.78 2.71779C7.3493 5.58868 4.9378 7.77043 2.1818 13.1676C-0.1148 17.7609 -0.689 26.9477 1.0335 31.6558C1.6077 33.1487 3.6747 35.9046 5.512 37.742C7.3493 39.6941 9.3015 43.0243 9.7608 45.0913C12.1723 56.4598 23.8853 68.058 32.8423 68.058C33.8758 68.058 36.517 69.8953 38.6988 72.0772L42.6032 76.0962H37.5505C34.7945 76.0962 29.9715 76.9002 26.871 77.8188C20.7848 79.5413 11.4833 86.6609 11.4833 89.4169C11.4833 90.3356 9.4163 93.2065 6.89 95.618C1.378 101.015 0 104.23 0 111.809C0 124.556 9.0718 133.513 22.048 133.513C25.3782 133.398 29.3973 132.709 31.005 131.905C32.8423 130.872 35.828 130.527 39.7323 130.872C46.9668 131.676 52.7085 129.838 57.5315 125.36C59.4837 123.522 62.2397 122.03 63.6177 122.03C68.3258 121.915 75.6752 117.666 79.1202 112.728C84.747 105.034 83.0245 100.096 76.9383 106.412C74.0675 109.628 65.6847 112.843 60.5172 112.843C58.2205 112.843 55.6942 114.221 52.7085 116.747C47.3113 121.685 42.029 122.833 36.2873 120.422C32.383 118.814 31.694 118.814 29.5122 120.307C25.3782 123.178 18.0288 122.489 14.469 119.044C9.9905 114.565 10.2202 107.216 14.9283 102.163C16.8805 100.211 19.292 96.6514 20.4403 94.4696C22.9667 89.3021 29.7418 85.6274 38.584 84.5939C42.2587 84.1346 46.7372 82.7567 48.4597 81.6083C50.1822 80.3452 53.5123 79.082 55.6942 78.7375C59.8282 78.0485 62.699 75.7518 61.5507 74.0293C61.2062 73.4552 58.565 72.3068 55.809 71.6178C51.9047 70.6992 49.4932 68.9766 45.7037 64.6129C42.9477 61.3976 39.7323 58.8712 38.584 58.8712C34.3352 58.8712 26.182 53.9334 22.9667 49.4549C21.1293 47.0434 19.4068 42.9095 18.9475 40.3832C18.4882 37.6272 16.8805 34.5267 14.8135 32.5745C12.1723 29.8185 11.4833 28.2108 11.4833 24.1917C11.4833 14.6605 21.359 9.37816 29.3973 14.6605C31.4643 15.9237 34.9093 16.8422 39.0433 16.8422C48.5745 17.1867 55.5793 21.5505 59.3688 29.7037C61.0913 33.608 62.9287 35.9046 64.077 35.9046C69.589 35.9046 78.0867 45.4358 78.0867 51.6368C78.0867 52.7852 78.546 54.3928 79.1202 55.3115C80.7278 57.723 83.369 55.0817 84.2876 50.3736C84.747 48.1917 86.0101 45.2062 87.1585 43.8282C88.3068 42.3353 89.6848 39.2347 90.1441 37.0529C92.0963 28.0959 97.6083 22.0097 105.991 19.7131C108.632 19.0241 112.192 17.1868 113.8 15.694C120.345 9.49295 130.451 12.0193 133.207 20.2873C134.355 23.962 134.24 25.1102 132.173 29.3591C130.795 32.1151 129.762 36.5937 129.762 39.4645C129.762 45.6655 126.891 50.7182 121.608 53.589C119.082 54.967 116.785 57.6082 115.063 61.3977C112.881 65.8762 111.044 67.7134 106.106 70.5842C102.661 72.5364 100.02 74.6035 100.249 75.4073C101.053 77.5892 110.929 76.5557 116.096 73.57C118.738 72.192 121.953 68.9766 123.331 66.6799C124.594 64.2684 127.924 60.8234 130.451 58.9861C136.307 54.8521 140.441 46.9286 139.982 40.7276C139.752 37.7419 140.441 35.1008 141.819 32.919C151.695 17.761 134.24 -4.17216 116.785 1.56944C114.144 2.48814 110.125 4.78477 107.943 6.73697C105.761 8.57427 101.857 10.871 99.216 11.56C90.948 13.9715 83.4838 23.0433 81.6465 32.8042L80.7278 37.6272L79.235 34.5267C78.4312 32.6893 75.79 30.3926 73.3785 29.3591C70.5077 27.9811 68.4407 25.9142 67.1775 23.0433C62.9287 13.8567 52.8233 7.19625 42.9477 7.19625C39.7323 7.19625 36.517 6.39246 34.6797 5.12926C31.005 2.48816 24.6892 0.306351 21.359 0.306351C19.981 0.306351 16.6508 1.45468 13.78 2.71779Z" fill="#297DFC"/>
<path d="M273.188 2.94748C259.179 7.65567 252.404 14.0863 246.892 27.7515C245.169 31.8855 240.576 40.498 236.786 46.8138L229.781 58.2972L237.82 58.6417C242.184 58.8713 245.743 59.3307 245.743 59.6752C245.743 60.0197 244.136 63.1201 242.183 66.5652C240.231 70.0102 238.853 73.1107 239.198 73.3402C239.542 73.6848 243.676 73.3403 248.384 72.6513C253.093 71.8475 260.786 71.3882 265.609 71.7327C279.734 72.4217 280.308 73.3403 285.935 109.168C289.839 133.628 293.858 143.963 305.571 159.925C313.839 171.293 336.002 192.078 339.677 192.078C342.433 192.078 340.825 189.322 332.902 180.824C317.629 164.173 304.308 141.781 300.289 125.934C299.37 122.144 297.303 110.202 295.696 99.1778C292.366 76.6704 290.758 71.8475 285.246 67.0245C279.849 62.2015 273.418 60.7087 262.509 61.6273L253.552 62.4312L256.538 57.3785C258.145 54.5077 259.064 51.9813 258.719 51.522C258.375 51.1775 255.734 50.833 252.978 50.833H247.925L251.37 44.7467C253.207 41.5314 255.849 35.9047 257.112 32.3448C261.935 19.5983 271.581 13.0528 285.705 12.938C300.519 12.938 308.442 18.1055 327.16 40.3832C339.103 54.6225 342.548 57.8378 356.328 68.5172C368.5 77.8188 389.17 99.4075 400.883 115.14C425.687 148.212 457.496 200.92 476.903 241.227C485.286 258.796 498.491 289.916 497.802 290.605C497.228 291.179 465.075 268.557 447.85 255.466C389.974 211.37 356.672 172.097 328.194 114.221C322.567 102.738 317.399 93.3213 316.71 93.3213C314.643 93.3213 316.481 103.886 320.844 116.747C337.265 165.781 380.328 217.341 450.032 271.543L460.826 279.925L471.046 309.782C480.692 337.916 481.152 339.639 479.199 341.132C476.903 342.854 469.094 342.395 467.142 340.443C466.453 339.754 462.663 329.763 458.644 318.28C454.625 306.796 450.836 296.806 450.261 296.232C447.391 293.361 447.85 300.021 451.754 318.854C454.051 329.878 455.888 340.443 455.888 342.28C455.888 344.806 454.625 346.758 451.295 349.859C448.769 352.156 446.127 353.993 445.553 353.993C443.716 353.993 442.453 350.203 439.237 335.62C437.63 328.385 433.036 309.552 429.132 293.705C423.505 271.198 421.438 264.882 419.945 264.653C418.567 264.423 417.993 264.997 417.993 266.72C417.993 269.705 427.295 325.629 431.314 346.988C434.644 365.017 436.137 368.462 440.845 369.495C445.324 370.414 449.343 368.232 456.462 360.998C463.123 354.108 466.683 352.845 479.199 352.845C489.19 352.845 492.635 350.892 492.635 344.921C492.635 343.199 488.501 330.222 483.448 316.098C478.396 301.973 474.491 290.26 474.721 290.031C474.951 289.801 478.625 291.983 482.989 294.854C494.472 302.777 503.659 307.141 507.908 306.682C511.468 306.337 511.582 306.222 511.468 300.595C510.779 274.184 454.051 166.355 409.496 107.101C398.357 92.2878 376.538 69.8953 360.921 57.4933C352.194 50.4885 344.385 42.9095 336.576 33.7228C318.777 12.7083 310.624 6.39246 296.385 2.37326C286.624 -0.267853 282.49 -0.153015 273.188 2.94748Z" fill="#297DFC"/>
<path d="M434.07 18.3352C429.247 26.8328 408.347 58.6417 402.146 66.9097L397.323 73.1107L400.998 76.9002C402.95 78.9672 405.017 80.3452 405.591 80.0007C406.051 79.6562 410.988 72.6513 416.5 64.2685L426.491 49.2253L427.869 55.3115C429.591 63.1202 432.922 66.4503 440.386 68.1728C449.113 70.125 460.137 67.369 496.999 54.278C500.444 53.0148 500.673 52.5555 500.673 47.2732C500.673 44.1727 500.558 41.6463 500.329 41.6463C500.099 41.6463 492.75 44.2875 484.022 47.5028C439.926 63.4647 432.807 61.5125 439.812 36.1343C441.075 31.4262 443.716 24.3065 445.553 20.1725C447.505 16.0385 448.998 12.4787 448.998 12.249C448.998 12.0193 446.472 11.7897 443.371 11.7897H437.745L434.07 18.3352Z" fill="#297DFC"/>
<path d="M270.547 29.1294C267.906 31.1964 267.447 32.3447 267.791 36.3639C268.136 40.7276 268.365 41.0721 271.81 41.4166C274.452 41.6462 276.404 40.8425 279.504 38.2013C284.557 33.7228 284.787 30.8519 280.193 28.4404C275.715 26.1437 274.222 26.2586 270.547 29.1294Z" fill="#297DFC"/>
<path d="M32.1533 32.4596C32.1533 33.7227 35.139 36.4787 49.9525 48.9956C60.0578 57.4932 60.2875 57.6081 62.4693 55.4262C64.5363 53.3592 64.5363 53.2443 62.2397 50.3735C54.8903 40.9571 32.1533 27.4069 32.1533 32.4596Z" fill="#297DFC"/>
<path d="M106.565 39.1201C102.431 43.3689 97.4934 50.0293 95.5412 53.8188C91.9814 60.8236 91.9814 60.9384 94.278 63.0054C95.656 64.1538 96.9192 64.6131 97.4934 63.9241C99.5604 61.6274 117.13 33.4933 117.13 32.4598C117.13 29.5889 113.455 31.8856 106.565 39.1201Z" fill="#297DFC"/>
<path d="M167.886 37.053C157.092 41.4167 151.465 49.2254 146.527 66.3356C142.508 80.1156 138.03 88.9578 130.221 97.9148C111.044 120.078 104.384 130.068 95.0821 151.197C92.0964 157.973 89.5701 163.829 89.5701 164.059C89.5701 164.288 92.3261 164.518 95.6562 164.518H101.628L108.173 150.968C116.326 134.087 123.216 123.637 135.618 108.824C150.317 91.3692 153.073 86.2018 159.504 63.9241C161.456 57.3786 162.834 54.8523 166.394 51.6369C173.054 45.6656 179.37 44.9766 190.623 48.8809C195.446 50.6034 200.729 51.9814 202.451 51.9814C206.126 51.9814 206.241 52.4408 203.14 56.3451L200.844 59.3308L204.403 62.3164L207.963 65.1873L203.025 68.7471C200.269 70.6993 196.365 74.7184 194.298 77.8189C187.982 87.3501 190.279 91.1396 197.628 83.4458C202.796 77.9338 208.078 74.7184 216.805 71.5031C220.71 70.1251 223.925 68.5174 223.925 68.1729C223.925 67.7136 221.399 65.4169 218.183 63.1203C215.083 60.7088 212.442 58.2973 212.442 57.6083C212.442 57.0341 214.279 53.8187 216.461 50.4885C218.643 47.2732 220.48 44.1728 220.48 43.8283C220.48 43.3689 215.657 42.7948 209.915 42.5651C201.533 42.1058 197.858 41.3018 192.92 39.0052C187.867 36.5938 184.997 35.9048 178.566 36.0195C174.202 36.0195 169.379 36.4789 167.886 37.053Z" fill="#297DFC"/>
<path d="M177.418 57.034C176.384 58.6417 175.695 61.2828 175.925 63.1202C176.269 65.8762 176.843 66.3354 180.403 66.6799C183.389 66.9096 185.226 66.3355 187.523 64.1537C191.198 60.7087 191.312 59.5603 188.327 56.5747C185.111 53.3593 179.599 53.589 177.418 57.034Z" fill="#297DFC"/>
<path d="M501.822 67.0244C482.874 74.6034 456.807 85.9719 440.156 94.0102C421.094 103.197 421.668 102.623 426.835 109.053L428.902 111.465L439.237 108.02C448.309 105.034 451.869 104.46 467.946 103.656C478.051 103.197 489.534 102.163 493.554 101.36L500.673 99.8667V95.5031C500.673 92.9767 500.558 91.0246 500.444 91.0246C500.214 91.0246 495.735 91.8284 490.338 92.7471C479.429 94.6992 468.52 95.0436 468.52 93.436C468.52 92.2876 486.893 84.2494 502.396 78.6226L511.582 75.2923L511.927 69.321C512.157 66.1056 511.812 63.4645 511.353 63.5793C510.893 63.5793 506.53 65.1871 501.822 67.0244Z" fill="#297DFC"/>
<path d="M80.6131 75.1777C79.8093 75.9815 79.2351 76.9003 79.2351 77.3596C79.2351 77.7041 81.8763 82.6418 85.0916 88.2687C88.4217 93.8955 92.7854 102.393 94.9672 107.101L98.9864 115.714L102.317 111.695C104.039 109.513 105.647 106.987 105.647 106.068C105.647 102.049 85.7806 73.7998 82.9098 73.7998C82.4504 73.7998 81.4169 74.3738 80.6131 75.1777Z" fill="#297DFC"/>
<path d="M55.12 92.0582C43.9812 95.618 32.1533 102.623 32.1533 105.608C32.1533 106.412 32.6127 107.101 33.1868 107.101C34.3352 107.101 68.0962 95.618 68.6703 95.0438C68.9 94.8142 68.7852 93.551 68.3258 92.2878C67.4072 89.3022 63.8473 89.1873 55.12 92.0582Z" fill="#297DFC"/>
<path d="M188.327 93.8954C176.04 97.9146 169.609 107.561 167.197 125.704C165.36 139.714 164.786 140.862 152.614 157.858C147.561 164.977 142.623 172.097 141.819 173.704C140.326 176.69 140.326 176.92 144.92 179.446L149.628 182.087L151.695 179.331C159.389 169.341 174.891 145.456 176.269 141.436C177.188 138.795 177.992 133.972 177.992 130.757C177.992 111.12 189.705 100.326 207.389 103.541C211.982 104.345 215.427 104.46 218.069 103.656C220.25 103.082 222.203 102.738 222.547 102.967C222.777 103.197 222.088 105.034 221.169 106.986C218.758 111.58 218.872 112.498 221.973 113.302C227.944 114.91 228.059 115.829 222.892 121.455C215.313 129.609 210.03 141.781 209.341 152.69C208.537 165.322 211.408 179.676 214.279 176.805C214.738 176.346 215.313 172.556 215.542 168.307C216.576 151.657 221.284 138.795 230.7 127.082C233.227 123.867 237.131 119.963 239.428 118.47C241.609 116.977 243.332 115.254 243.102 114.68C242.987 114.221 240.002 112.498 236.557 111.12C229.322 108.02 229.207 107.446 232.997 98.0294L235.523 91.8284L229.437 92.8619C222.317 94.0102 212.901 94.0102 201.533 92.9767C195.791 92.4026 192.001 92.6322 188.327 93.8954Z" fill="#297DFC"/>
<path d="M198.662 112.269C196.595 114.795 196.595 121.915 198.777 123.293C201.533 125.015 203.37 124.441 207.504 120.307C211.293 116.518 211.408 116.058 209.801 113.647C207.734 110.431 200.844 109.628 198.662 112.269Z" fill="#297DFC"/>
<path d="M73.8378 140.633C54.2013 142.24 34.3352 149.015 28.7083 156.135C26.6413 158.776 26.2968 160.154 26.9858 164.518C27.4452 167.389 27.56 171.178 27.4452 173.13C26.2968 185.877 26.871 189.322 31.3495 195.982C35.5983 202.413 35.7132 202.528 34.9093 210.911C33.761 223.772 36.4022 229.743 49.8377 244.557C53.3975 248.346 56.2683 251.791 56.2683 252.136C56.2683 252.365 46.7372 256.614 35.0242 261.552C3.2153 274.873 0.1148 278.433 0 300.825V313.801H3.445C9.7608 313.801 11.4833 310.586 11.4833 299.103C11.4833 288.308 13.3207 283.485 18.603 280.04C24.5743 276.136 77.7422 254.892 82.9097 254.318C92.7853 253.399 107.025 259.944 121.264 272.117L128.613 278.318L132.058 275.677C134.01 274.299 135.503 272.691 135.503 272.117C135.503 268.787 113.57 252.48 102.546 247.657C94.0485 243.868 87.503 243.179 78.2015 244.901C68.211 246.739 65.7995 245.59 56.0387 233.762C47.1965 223.198 45.9333 220.901 45.9333 216.308C45.9333 212.059 46.163 212.059 52.1343 215.504C57.9908 218.949 70.5077 223.083 74.8713 223.083C78.0867 223.083 78.2015 222.853 77.5125 219.293C76.479 214.815 76.479 214.7 69.8187 212.289C56.7277 207.466 40.9955 193.571 39.5027 185.647C38.584 180.48 40.4213 178.183 43.407 180.939C46.7372 183.925 59.8282 189.437 67.2923 191.044C73.723 192.308 74.6417 192.193 83.2541 189.092C96.2303 184.499 103.12 184.843 120.345 190.93C138.144 197.245 140.441 197.59 142.853 194.145C144.575 191.733 144.575 191.389 142.738 190.011C139.178 187.255 124.25 180.709 114.489 177.609C101.742 173.59 92.6705 173.59 82.2207 177.609C72.9192 181.284 69.2445 181.054 56.8425 175.886C46.5075 171.638 40.9955 166.815 41.5697 162.451C42.2587 156.824 52.5937 153.035 78.3163 149.015C81.8762 148.441 82.68 147.752 83.8283 144.307C84.6321 142.126 84.9766 140.173 84.747 139.944C84.6321 139.829 79.6943 140.173 73.8378 140.633Z" fill="#297DFC"/>
<path d="M237.131 144.996C236.212 146.834 235.408 148.901 235.408 149.59C235.408 150.279 242.987 150.738 257.801 150.738C270.088 150.738 280.193 150.279 280.193 149.705C280.193 149.245 279.619 147.178 278.93 145.111L277.667 141.551H258.26H238.968L237.131 144.996Z" fill="#297DFC"/>
<path d="M385.84 156.824C385.84 159.121 395.486 174.279 403.524 184.499C420.405 205.973 461.86 241.112 461.63 233.648C461.63 233.188 451.065 222.279 438.319 209.188C425.572 196.212 409.266 178.872 402.031 170.489C389.859 156.48 385.84 153.035 385.84 156.824Z" fill="#297DFC"/>
<path d="M292.825 183.121C286.05 185.762 278.586 185.992 237.131 185.073L218.757 184.614L211.063 188.289C202.795 192.193 201.762 193.801 205.552 197.246C207.733 199.198 208.193 199.198 214.623 197.36C225.073 194.49 235.408 193.915 248.958 195.523C273.418 198.509 287.887 196.901 302.586 189.552C308.672 186.451 308.557 186.681 305.456 183.466C302.241 180.021 301.093 180.021 292.825 183.121Z" fill="#297DFC"/>
<path d="M171.561 192.193C154.336 200.805 143.542 211.14 143.542 219.064C143.542 235.715 168.92 236.633 200.729 221.361C213.705 215.16 213.82 215.045 212.212 212.518C209.686 208.614 207.044 208.729 197.513 213.093C182.929 219.638 173.513 222.394 165.015 222.509C158.7 222.509 156.862 222.05 155.599 220.442C151.809 215.274 159.388 208.04 177.877 199.198C185.226 195.753 191.427 192.652 191.657 192.423C192.575 191.734 186.719 186.336 184.996 186.336C183.963 186.336 177.877 188.978 171.561 192.193Z" fill="#297DFC"/>
<path d="M307.064 203.217C302.701 208.844 294.777 217.801 289.265 223.313C280.997 231.925 278.815 233.418 275.715 233.418C272.614 233.418 271.81 232.844 270.318 229.399C269.514 227.217 268.71 222.738 268.71 219.408C268.71 210.222 268.251 209.992 258.26 211.6C244.825 213.896 231.734 218.03 218.069 224.461L205.322 230.432L206.011 234.337C206.356 236.518 206.815 238.585 207.159 238.93C207.504 239.16 211.293 237.667 215.657 235.37C225.533 230.203 242.184 224.576 250.566 223.542L256.882 222.853L257.686 227.217C258.949 233.762 262.624 240.997 266.069 243.294C269.858 245.705 276.289 245.82 280.882 243.408C287.083 240.193 296.155 231.121 308.557 215.734C315.217 207.466 320.844 200.001 321.189 199.198C321.763 197.934 317.514 193.341 315.677 193.226C315.332 193.226 311.428 197.705 307.064 203.217Z" fill="#297DFC"/>
<path d="M86.6992 199.083C78.2016 201.954 76.8236 203.217 78.2016 206.892C79.1203 209.188 79.8093 209.418 83.5987 208.844C85.8954 208.499 90.948 207.81 94.7375 207.466C101.398 206.777 101.742 206.892 105.187 210.337C109.092 214.356 113.341 222.624 112.192 223.887C111.733 224.231 105.647 224.92 98.5271 225.265L85.5508 225.954L85.8953 228.825C86.6991 233.992 87.9623 234.566 99.7901 234.451C105.876 234.337 112.422 233.992 114.259 233.533C117.36 232.844 118.393 233.418 124.709 239.964C134.011 249.495 143.542 254.088 155.944 254.892C166.279 255.581 173.628 254.318 185.915 249.38C197.054 244.901 197.973 244.098 196.25 239.389C195.561 237.322 194.757 235.715 194.528 235.715C194.183 235.715 191.542 236.978 188.556 238.471C172.02 246.854 153.647 248.346 143.197 242.26C135.618 237.782 128.613 229.399 121.838 216.423C118.508 210.222 114.03 203.332 111.848 201.15C108.403 197.82 107.14 197.36 100.709 197.016C95.6562 196.786 91.6371 197.36 86.6992 199.083Z" fill="#297DFC"/>
<path d="M331.064 212.633C321.189 218.949 308.442 232.155 298.681 245.82C292.825 254.088 288.691 258.796 285.016 261.093C278.93 264.997 269.399 268.672 263.198 269.705C258.949 270.279 258.949 270.279 256.193 264.308C251.026 252.71 240.116 243.868 231.045 243.753C228.863 243.753 223.236 245.131 218.413 246.739C206.815 250.528 176.843 265.227 176.039 267.523C175.695 268.442 176.384 270.279 177.762 271.543L180.173 273.954L197.169 266.375C225.992 253.629 231.274 252.595 238.279 258.911C240.576 260.863 243.676 264.882 245.169 267.983L247.925 273.38L245.399 274.069C244.021 274.413 235.408 275.332 226.222 276.021C217.035 276.71 208.422 277.514 207.044 277.744C204.748 278.203 201.532 284.174 202.91 285.552C204.059 286.586 219.791 286.356 233.686 285.093C255.849 283.026 275.141 278.433 287.657 272.232C293.514 269.361 295.351 268.901 300.289 269.476C307.409 270.394 317.17 267.983 326.356 263.045C336.347 257.763 338.758 255.121 338.758 249.495C338.758 246.968 338.529 244.901 338.184 244.901C337.84 244.901 334.854 246.968 331.524 249.495C323.83 255.236 316.825 258.337 309.016 259.37C301.552 260.289 301.552 260.289 310.394 247.428C317.973 236.174 329.112 225.035 339.103 218.604C343.352 215.848 346.797 213.437 346.797 213.322C346.797 212.863 339.218 208.155 338.529 208.155C338.184 208.155 334.854 210.107 331.064 212.633Z" fill="#297DFC"/>
<path d="M366.778 231.351C353.457 257.763 327.734 282.222 303.16 291.753C295.811 294.624 295.007 294.739 255.504 295.543C215.427 296.232 215.312 296.347 201.188 299.906C193.379 301.859 184.307 303.466 180.977 303.466C173.628 303.466 163.063 300.021 157.551 295.772L153.532 292.787L158.47 288.538L163.293 284.404L160.537 281.074L157.666 277.858L135.274 294.509L112.881 311.275L112.192 303.466C111.159 290.49 106.106 283.6 94.1633 278.433C88.9958 276.251 88.9958 276.251 84.747 278.662C82.3355 279.925 80.4982 281.533 80.7278 282.107C80.9575 282.567 83.4838 283.945 86.3546 285.093C89.2255 286.241 93.3595 288.308 95.3116 289.686C102.202 294.624 105.072 305.878 102.202 316.328C99.7901 324.825 87.2733 332.175 75.101 332.175C69.3593 332.175 66.6033 334.356 66.6033 339.179C66.6033 342.395 66.833 342.51 72.1153 342.51C78.3163 342.51 88.9958 339.983 95.1968 336.998C98.4121 335.505 121.034 318.509 143.197 300.94C144.231 300.136 145.838 300.825 148.709 303.351C156.977 310.586 169.379 314.95 181.666 314.95C186.834 314.95 194.528 313.686 203.599 311.275C217.609 307.715 217.609 307.715 257.227 306.911C301.323 306.107 302.815 305.878 319.237 296.921C341.514 284.863 364.596 260.748 376.538 237.207C377.802 234.566 378.95 231.925 378.95 231.466C378.95 230.547 371.601 225.38 370.337 225.38C370.108 225.38 368.385 228.136 366.778 231.351Z" fill="#297DFC"/>
</svg>
