<svg width="512" height="138" viewBox="0 0 512 138" fill="none" xmlns="http://www.w3.org/2000/svg">
<path d="M48.572 0.231934V78.071L20.491 0.231934H0V137.78C7.173 136.759 14.36 135.781 21.56 134.843V60.0449L46.529 131.772C54.382 130.861 62.25 129.999 70.132 129.188V0.231934H48.572Z" fill="#FF0000"/>
<path d="M150.755 21.6679V0.23291H90.865V127.183C110.737 125.377 130.7 123.889 150.754 122.734V101.488C137.941 102.229 125.164 103.105 112.425 104.107V71.9439C120.784 71.8609 131.79 71.6059 141.541 71.7269V50.4809C133.751 50.4619 121.231 50.5899 112.425 50.7029V21.6679H150.755Z" fill="#FF0000"/>
<path d="M164.576 0.231934V21.6669H187.142V121.009C194.316 120.738 201.506 120.515 208.702 120.327V21.6669H231.267V0.231934H164.576Z" fill="#FF0000"/>
<path d="M305.278 21.6679V0.23291H245.089V119.746L266.65 119.741V70.6919H295.876V49.4479H266.65V21.6669H305.278V21.6679Z" fill="#FF0000"/>
<path d="M340.658 100.424V0.219971H319.098V120.8C338.692 121.474 358.205 122.463 377.637 123.758V102.514C365.345 101.694 353.018 100.999 340.658 100.424Z" fill="#FF0000"/>
<path d="M472.706 36.4169L458.679 0.231934H435.353L460.42 64.8889L433.054 128.32C440.625 129.058 448.176 129.846 455.716 130.679L471.631 93.7979L487.393 134.454C495.603 135.51 503.793 136.611 511.966 137.778L511.999 137.764L483.912 65.3259L512 0.231934H488.318L472.706 36.4169Z" fill="#FF0000"/>
<path d="M395.412 0.231934V125.037C402.609 125.588 409.796 126.179 416.973 126.818V0.231934H395.412Z" fill="#FF0000"/>
</svg>
