<svg width="512" height="512" viewBox="0 0 512 512" fill="none" xmlns="http://www.w3.org/2000/svg">
<path d="M447.72 512H441.503V474.899H427.825V470.033H461.398V474.899H447.72V512Z" fill="#00643C"/>
<path d="M489.379 502.269L502.435 470.033H511.761V512H505.544V476.723L491.244 512H487.514L473.214 476.723V512H466.997V470.033H476.323L489.379 502.269Z" fill="#00643C"/>
<path d="M277.36 107.13C276.41 106.41 251.32 87.28 251.32 87.28C251.32 87.28 226.24 106.41 225.28 107.13C224.33 107.85 224.81 109.04 226 108.8C228.15 108.33 238.9 106.65 251.32 106.65C263.75 106.65 274.5 108.33 276.65 108.8C277.84 109.04 278.32 107.85 277.36 107.13ZM269.24 233.39C269.24 233.39 262.31 235.06 251.09 235.06C239.86 235.06 232.93 233.39 232.93 233.39C232.93 233.39 231.5 233.87 231.26 235.06C236.51 239.13 240.1 248.46 251.09 248.46C262.08 248.46 265.66 239.13 270.91 235.06C270.68 233.87 269.24 233.39 269.24 233.39ZM257.54 216.65C254.91 216.65 254.19 217.85 251.32 217.85C248.22 217.85 247.5 216.65 245.59 216.65C243.68 216.65 239.86 218.33 238.9 219.76C238.9 220.48 239.14 221.2 239.86 221.67C244.4 222.39 246.31 224.78 251.56 224.78C256.82 224.78 258.73 222.39 263.27 221.67C263.75 221.2 263.99 220.48 264.22 219.76C263.51 218.33 259.45 216.65 257.54 216.65ZM257.54 216.65C254.91 216.65 254.19 217.85 251.32 217.85C248.22 217.85 247.5 216.65 245.59 216.65C243.68 216.65 239.86 218.33 238.9 219.76C238.9 220.48 239.14 221.2 239.86 221.67C244.4 222.39 246.31 224.78 251.56 224.78C256.82 224.78 258.73 222.39 263.27 221.67C263.75 221.2 263.99 220.48 264.22 219.76C263.51 218.33 259.45 216.65 257.54 216.65ZM269.24 233.39C269.24 233.39 262.31 235.06 251.09 235.06C239.86 235.06 232.93 233.39 232.93 233.39C232.93 233.39 231.5 233.87 231.26 235.06C236.51 239.13 240.1 248.46 251.09 248.46C262.08 248.46 265.66 239.13 270.91 235.06C270.68 233.87 269.24 233.39 269.24 233.39ZM277.36 107.13C276.41 106.41 251.32 87.28 251.32 87.28C251.32 87.28 226.24 106.41 225.28 107.13C224.33 107.85 224.81 109.04 226 108.8C228.15 108.33 238.9 106.65 251.32 106.65C263.75 106.65 274.5 108.33 276.65 108.8C277.84 109.04 278.32 107.85 277.36 107.13ZM277.36 107.13C276.41 106.41 251.32 87.28 251.32 87.28C251.32 87.28 226.24 106.41 225.28 107.13C224.33 107.85 224.81 109.04 226 108.8C228.15 108.33 238.9 106.65 251.32 106.65C263.75 106.65 274.5 108.33 276.65 108.8C277.84 109.04 278.32 107.85 277.36 107.13ZM269.24 233.39C269.24 233.39 262.31 235.06 251.09 235.06C239.86 235.06 232.93 233.39 232.93 233.39C232.93 233.39 231.5 233.87 231.26 235.06C236.51 239.13 240.1 248.46 251.09 248.46C262.08 248.46 265.66 239.13 270.91 235.06C270.68 233.87 269.24 233.39 269.24 233.39ZM257.54 216.65C254.91 216.65 254.19 217.85 251.32 217.85C248.22 217.85 247.5 216.65 245.59 216.65C243.68 216.65 239.86 218.33 238.9 219.76C238.9 220.48 239.14 221.2 239.86 221.67C244.4 222.39 246.31 224.78 251.56 224.78C256.82 224.78 258.73 222.39 263.27 221.67C263.75 221.2 263.99 220.48 264.22 219.76C263.51 218.33 259.45 216.65 257.54 216.65ZM257.54 216.65C254.91 216.65 254.19 217.85 251.32 217.85C248.22 217.85 247.5 216.65 245.59 216.65C243.68 216.65 239.86 218.33 238.9 219.76C238.9 220.48 239.14 221.2 239.86 221.67C244.4 222.39 246.31 224.78 251.56 224.78C256.82 224.78 258.73 222.39 263.27 221.67C263.75 221.2 263.99 220.48 264.22 219.76C263.51 218.33 259.45 216.65 257.54 216.65ZM269.24 233.39C269.24 233.39 262.31 235.06 251.09 235.06C239.86 235.06 232.93 233.39 232.93 233.39C232.93 233.39 231.5 233.87 231.26 235.06C236.51 239.13 240.1 248.46 251.09 248.46C262.08 248.46 265.66 239.13 270.91 235.06C270.68 233.87 269.24 233.39 269.24 233.39ZM277.36 107.13C276.41 106.41 251.32 87.28 251.32 87.28C251.32 87.28 226.24 106.41 225.28 107.13C224.33 107.85 224.81 109.04 226 108.8C228.15 108.33 238.9 106.65 251.32 106.65C263.75 106.65 274.5 108.33 276.65 108.8C277.84 109.04 278.32 107.85 277.36 107.13ZM277.36 107.13C276.41 106.41 251.32 87.28 251.32 87.28C251.32 87.28 226.24 106.41 225.28 107.13C224.33 107.85 224.81 109.04 226 108.8C228.15 108.33 238.9 106.65 251.32 106.65C263.75 106.65 274.5 108.33 276.65 108.8C277.84 109.04 278.32 107.85 277.36 107.13ZM269.24 233.39C269.24 233.39 262.31 235.06 251.09 235.06C239.86 235.06 232.93 233.39 232.93 233.39C232.93 233.39 231.5 233.87 231.26 235.06C236.51 239.13 240.1 248.46 251.09 248.46C262.08 248.46 265.66 239.13 270.91 235.06C270.68 233.87 269.24 233.39 269.24 233.39ZM257.54 216.65C254.91 216.65 254.19 217.85 251.32 217.85C248.22 217.85 247.5 216.65 245.59 216.65C243.68 216.65 239.86 218.33 238.9 219.76C238.9 220.48 239.14 221.2 239.86 221.67C244.4 222.39 246.31 224.78 251.56 224.78C256.82 224.78 258.73 222.39 263.27 221.67C263.75 221.2 263.99 220.48 264.22 219.76C263.51 218.33 259.45 216.65 257.54 216.65ZM257.54 216.65C254.91 216.65 254.19 217.85 251.32 217.85C248.22 217.85 247.5 216.65 245.59 216.65C243.68 216.65 239.86 218.33 238.9 219.76C238.9 220.48 239.14 221.2 239.86 221.67C244.4 222.39 246.31 224.78 251.56 224.78C256.82 224.78 258.73 222.39 263.27 221.67C263.75 221.2 263.99 220.48 264.22 219.76C263.51 218.33 259.45 216.65 257.54 216.65ZM269.24 233.39C269.24 233.39 262.31 235.06 251.09 235.06C239.86 235.06 232.93 233.39 232.93 233.39C232.93 233.39 231.5 233.87 231.26 235.06C236.51 239.13 240.1 248.46 251.09 248.46C262.08 248.46 265.66 239.13 270.91 235.06C270.68 233.87 269.24 233.39 269.24 233.39ZM277.36 107.13C276.41 106.41 251.32 87.28 251.32 87.28C251.32 87.28 226.24 106.41 225.28 107.13C224.33 107.85 224.81 109.04 226 108.8C228.15 108.33 238.9 106.65 251.32 106.65C263.75 106.65 274.5 108.33 276.65 108.8C277.84 109.04 278.32 107.85 277.36 107.13ZM277.36 107.13C276.41 106.41 251.32 87.28 251.32 87.28C251.32 87.28 226.24 106.41 225.28 107.13C224.33 107.85 224.81 109.04 226 108.8C228.15 108.33 238.9 106.65 251.32 106.65C263.75 106.65 274.5 108.33 276.65 108.8C277.84 109.04 278.32 107.85 277.36 107.13ZM269.24 233.39C269.24 233.39 262.31 235.06 251.09 235.06C239.86 235.06 232.93 233.39 232.93 233.39C232.93 233.39 231.5 233.87 231.26 235.06C236.51 239.13 240.1 248.46 251.09 248.46C262.08 248.46 265.66 239.13 270.91 235.06C270.68 233.87 269.24 233.39 269.24 233.39ZM257.54 216.65C254.91 216.65 254.19 217.85 251.32 217.85C248.22 217.85 247.5 216.65 245.59 216.65C243.68 216.65 239.86 218.33 238.9 219.76C238.9 220.48 239.14 221.2 239.86 221.67C244.4 222.39 246.31 224.78 251.56 224.78C256.82 224.78 258.73 222.39 263.27 221.67C263.75 221.2 263.99 220.48 264.22 219.76C263.51 218.33 259.45 216.65 257.54 216.65ZM257.54 216.65C254.91 216.65 254.19 217.85 251.32 217.85C248.22 217.85 247.5 216.65 245.59 216.65C243.68 216.65 239.86 218.33 238.9 219.76C238.9 220.48 239.14 221.2 239.86 221.67C244.4 222.39 246.31 224.78 251.56 224.78C256.82 224.78 258.73 222.39 263.27 221.67C263.75 221.2 263.99 220.48 264.22 219.76C263.51 218.33 259.45 216.65 257.54 216.65ZM269.24 233.39C269.24 233.39 262.31 235.06 251.09 235.06C239.86 235.06 232.93 233.39 232.93 233.39C232.93 233.39 231.5 233.87 231.26 235.06C236.51 239.13 240.1 248.46 251.09 248.46C262.08 248.46 265.66 239.13 270.91 235.06C270.68 233.87 269.24 233.39 269.24 233.39ZM277.36 107.13C276.41 106.41 251.32 87.28 251.32 87.28C251.32 87.28 226.24 106.41 225.28 107.13C224.33 107.85 224.81 109.04 226 108.8C228.15 108.33 238.9 106.65 251.32 106.65C263.75 106.65 274.5 108.33 276.65 108.8C277.84 109.04 278.32 107.85 277.36 107.13ZM277.36 107.13C276.41 106.41 251.32 87.28 251.32 87.28C251.32 87.28 226.24 106.41 225.28 107.13C224.33 107.85 224.81 109.04 226 108.8C228.15 108.33 238.9 106.65 251.32 106.65C263.75 106.65 274.5 108.33 276.65 108.8C277.84 109.04 278.32 107.85 277.36 107.13ZM269.24 233.39C269.24 233.39 262.31 235.06 251.09 235.06C239.86 235.06 232.93 233.39 232.93 233.39C232.93 233.39 231.5 233.87 231.26 235.06C236.51 239.13 240.1 248.46 251.09 248.46C262.08 248.46 265.66 239.13 270.91 235.06C270.68 233.87 269.24 233.39 269.24 233.39ZM239.86 221.67C244.4 222.39 246.31 224.78 251.56 224.78C256.82 224.78 258.73 222.39 263.27 221.67C263.75 221.2 263.99 220.48 264.22 219.76C263.51 218.33 259.45 216.65 257.54 216.65C254.91 216.65 254.19 217.85 251.32 217.85C248.22 217.85 247.5 216.65 245.59 216.65C243.68 216.65 239.86 218.33 238.9 219.76C238.9 220.48 239.139 221.2 239.86 221.67ZM426.68 245.35C423.81 238.17 420.7 231.24 416.88 224.54C454.63 217.85 467.53 249.41 502.65 244.63C498.889 110.93 391.21 3.42 257.73 0.08C256.66 0.05 255.58 0.03 254.51 0.02C253.45 0.01 252.39 0 251.32 0C250.35 0 249.39 0.01 248.42 0.02C247.34 0.03 246.25 0.05 245.17 0.08C155.37 2.22 77.28 51.37 34.64 123.9C33.76 125.36 32.92 126.83 32.09 128.32C31.71 128.98 31.34 129.65 30.98 130.32C12.28 164.37 1.25999 203.25 0.23999 244.63C35.36 249.41 48.26 217.85 86 224.54C82.42 231.24 79.08 238.17 76.21 245.35C45.87 242 33.45 269.26 0.47999 265.43C0.95999 271.41 1.42999 277.39 2.14999 283.37C30.58 288.15 40.85 262.8 70 264C68.09 270.22 66.89 276.43 65.7 282.89C41.57 282.89 32.01 305.37 5.25999 302.02C6.68999 308.95 8.35999 315.65 10.27 322.35C31.3 324.5 38.94 303.45 63.31 303.93C63.07 307.28 63.07 310.87 63.07 314.46V320.43C42.29 320.19 35.36 339.56 15.53 338.61C18.16 345.3 20.79 352 23.89 358.46C37.99 357.74 43 339.32 64.74 340.76C65.22 345.3 66.18 350.09 67.13 354.63C48.26 353.19 44.2 370.65 30.58 372.09C33.92 378.3 37.51 384.52 41.57 390.5C49.45 386.19 56.38 373.04 71.67 372.32C70.24 367.54 68.8 362.76 67.61 357.74C80.99 357.74 96.52 352.48 109.42 340.76C105.12 316.85 142.15 292.46 142.15 275C142.15 256.11 132.59 245.59 132.59 220C132.59 200.87 141.91 180.3 155.76 166.2C158.39 163.56 161.26 161.17 164.36 159.26C151.46 175.04 141.67 193.69 141.67 215.46C141.67 239.61 152.9 252.28 152.9 274.52C152.9 297 120.41 316.13 120.41 339.09C120.41 348.17 123.27 357.02 132.83 374.24C118.26 388.82 99.14 396.719 86.96 396.719C82.9 396.719 80.75 395.519 79.32 392.409C77.88 389.779 76.93 387.149 75.73 384.279C62.63 384.999 56.66 396.869 49.28 401.689C49.26 401.709 49.23 401.719 49.21 401.739C52.97 406.599 56.72 411.449 60.85 416.119C61.19 416.509 61.53 416.889 61.88 417.279C66.89 411.779 73.58 402.689 83.14 400.059C84.81 403.649 86.72 406.759 88.63 410.109C80.27 412.499 74.54 420.869 70.24 426.369C75.02 431.149 80.03 435.929 85.05 440.479C88.39 435.449 93.41 428.999 98.91 425.649C101.06 428.279 103.21 431.149 105.36 433.779C100.58 437.129 96.28 442.869 93.65 447.649C99.62 452.429 105.6 456.979 112.05 461.279C115.15 435.689 150.03 418.239 140.71 388.579C143.82 393.849 147.4 400.299 147.4 408.189C147.4 429.719 124.71 446.689 122.8 467.979C127.57 470.849 132.35 473.479 137.37 476.109C138.32 452.669 162.45 427.079 162.45 407.719C162.45 386.189 134.26 364.669 134.26 339.319C134.26 313.979 166.75 296.279 166.75 274.039C166.75 251.799 152.9 238.889 152.9 210.429C152.9 189.629 162.69 168.349 177.74 154.959C180.37 152.559 183.24 150.649 186.34 148.979C171.77 166.199 163.41 181.979 163.41 205.889C163.41 232.669 179.18 247.499 179.18 273.799C179.18 299.869 147.4 314.689 147.4 339.089C147.4 363.479 177.03 384.279 177.03 409.389C177.03 432.349 150.99 455.059 150.51 482.319C156.24 484.949 161.98 487.109 167.95 489.259C164.6 461.759 193.99 433.539 193.99 411.059C193.99 386.429 163.17 365.389 163.17 339.089C163.17 312.779 194.47 300.349 194.47 273.319C194.47 246.299 175.35 231.239 175.35 201.349C175.35 177.909 187.06 156.869 203.78 143.959C204.02 143.719 204.5 143.479 204.74 143.239C206.17 142.039 207.61 143.479 206.41 144.909C194.7 159.739 188.25 174.799 188.25 197.039C188.25 224.539 210.23 246.779 210.23 273.319C210.23 304.649 180.61 313.739 180.61 339.319C180.61 364.909 212.38 385.479 212.38 412.739C212.38 438.079 182.28 466.059 187.54 495.239C193.75 496.909 199.72 498.109 205.93 499.299C200.44 462.949 229.82 436.649 229.82 412.979C229.82 387.149 197.09 364.189 197.09 339.089C197.09 315.409 220.75 307.759 223.85 283.369C224.33 280.019 226.96 277.389 230.54 278.109C235.32 279.059 241.53 282.169 251.09 282.169C260.64 282.169 266.85 279.059 271.63 278.109C275.21 277.629 277.84 280.019 278.32 283.369C281.43 307.519 305.08 315.409 305.08 339.089C305.08 364.189 272.35 387.149 272.35 412.979C272.35 436.889 301.97 462.949 296.24 499.299C302.45 498.109 308.66 496.909 314.63 495.239C319.89 466.059 289.79 438.079 289.79 412.739C289.79 385.479 321.56 364.909 321.56 339.319C321.56 313.499 291.94 304.649 291.94 273.319C291.94 246.779 313.92 224.539 313.92 197.039C313.92 174.799 307.71 159.739 295.76 144.909C294.57 143.479 295.76 142.039 297.43 143.239C297.67 143.479 298.15 143.718 298.39 143.959C315.35 157.109 326.82 177.909 326.82 201.349C326.82 231.239 307.71 246.299 307.71 273.319C307.71 300.349 339 312.779 339 339.089C339 365.629 308.18 386.669 308.18 411.059C308.18 433.539 337.57 461.759 334.22 489.259C340.2 487.109 345.93 484.709 351.66 482.319C351.18 455.059 325.15 432.349 325.15 409.389C325.15 384.279 354.77 363.479 354.77 339.089C354.77 314.689 322.99 300.109 322.99 273.799C322.99 247.739 338.76 232.669 338.76 205.889C338.76 181.979 330.4 166.429 315.83 148.979C319.17 150.649 321.8 152.559 324.43 154.959C339.96 168.349 349.75 189.629 349.75 210.429C349.75 238.889 335.9 251.799 335.9 274.039C335.9 296.279 368.39 313.979 368.39 339.319C368.39 364.669 340.2 386.189 340.2 407.719C340.2 427.079 364.56 452.669 365.28 476.109C370.3 473.479 375.07 470.849 379.85 467.979C378.18 446.689 355.25 429.719 355.25 408.189C355.25 400.299 358.83 393.849 361.94 388.579C352.62 418.239 387.5 435.689 390.6 461.279C396.81 456.979 403.03 452.429 409 447.649C406.37 442.869 402.07 437.129 397.29 433.779C399.44 431.149 401.59 428.519 403.74 425.649C409.48 429.239 414.49 435.449 417.6 440.479C422.62 435.929 427.63 431.389 432.41 426.369C428.11 420.869 422.38 412.259 414.02 410.109C415.93 406.759 417.84 403.409 419.51 400.059C429.31 402.689 435.76 411.779 440.77 417.279C445.31 412.259 449.37 407.239 453.44 401.739C446.27 396.718 440.06 384.759 426.92 384.279C425.72 386.909 424.53 389.779 423.33 392.409C421.9 395.519 419.75 396.719 415.69 396.719C403.5 396.719 384.39 388.819 369.82 374.24C379.38 357.02 382.24 348.17 382.24 339.09C382.24 316.13 349.75 296.76 349.75 274.52C349.75 252.28 360.98 239.61 360.98 215.46C360.98 193.93 350.95 175.04 338.28 159.26C341.39 161.17 344.26 163.56 346.88 166.2C360.74 180.3 370.06 200.87 370.06 220C370.06 245.59 360.5 256.11 360.5 275C360.5 292.46 397.53 316.85 393.47 340.76C406.37 352.48 421.9 357.74 435.28 357.74C434.08 362.76 432.89 367.54 431.22 372.32C446.27 373.28 453.2 386.19 461.32 390.5C465.14 384.52 468.96 378.3 472.31 372.09C458.69 370.65 454.63 353.19 435.76 354.63C436.71 350.09 437.43 345.54 438.14 340.76C459.89 339.32 464.66 357.74 479 358.46C482.1 352 484.97 345.3 487.36 338.61C467.53 339.56 460.6 320.19 439.82 320.43V314.46C439.82 310.87 439.82 307.52 439.58 303.93C463.95 303.45 471.35 324.5 492.61 322.35C494.53 315.65 496.2 308.95 497.63 302.02C470.87 305.37 461.32 282.89 437.19 282.89C436 276.43 434.56 270.22 432.89 264C462.03 262.8 472.31 288.15 500.74 283.37C501.45 277.39 502.17 271.41 502.41 265.43C469.2 269.26 456.78 242 426.68 245.35ZM94.369 209.48C58.289 197.04 34.639 232.91 6.68899 224.54C33.689 195.61 55.659 163.09 52.799 125.3C52.799 123.15 54.709 121.72 56.619 123.15C70.479 132.72 80.269 148.5 83.139 166.43C102.249 154.24 124.709 152.33 143.099 159.98C123.99 173.37 107.51 190.11 94.369 209.48ZM299.58 167.63C300.06 168.83 299.34 169.78 297.91 169.06C293.85 167.15 289.07 166.2 283.82 166.2C274.26 166.2 265.9 169.78 260.88 175.76C257.77 185.8 258.01 197.04 261.6 205.89C267.09 205.41 266.61 195.61 271.15 195.61C274.98 195.61 276.89 198.24 283.34 198.24C289.31 198.24 291.7 196.56 294.33 194.65C299.58 195.37 300.78 200.39 300.78 206.13C300.78 232.19 276.89 268.06 251.56 268.06C226 268.06 202.11 232.19 202.11 206.13C202.11 200.39 203.07 195.13 208.08 195.13C212.38 195.13 213.1 198.24 219.55 198.24C226.24 198.24 229.11 195.61 232.93 195.61C236.75 195.61 238.19 198.48 242.01 199.43C244.4 193.46 244.16 182.93 242.01 175.76C236.99 169.78 228.63 166.2 219.07 166.2C214.06 166.2 209.28 167.15 204.98 169.06C203.54 169.78 202.83 168.83 203.31 167.63C208.32 150.41 227.91 137.26 251.32 137.26C274.5 137.26 294.09 150.41 299.58 167.63ZM298.869 180.06C298.869 182.22 298.149 184.13 295.759 186.28C291.459 181.5 282.379 181.5 272.349 185.09C271.629 183.89 271.629 181.98 272.109 180.78C276.169 176.24 282.859 174.56 288.349 174.56C295.28 174.56 298.869 176.96 298.869 180.06ZM204.02 180.3C204.02 176.96 207.37 174.56 214.29 174.56C223.85 174.56 233.41 180.54 232.93 185.8C222.18 181.74 211.67 181.5 206.89 186.52C204.5 184.37 203.78 182.46 204.02 180.3ZM339.96 143.96C339 145.63 337.33 146.35 335.42 145.39C310.09 132.96 281.66 125.78 251.56 125.78C221.46 125.78 193.03 132.96 167.71 145.39C165.8 146.35 163.89 145.87 163.17 143.96C155.76 127.7 145.97 112.63 134.98 98.28C153.37 99.48 169.38 105.93 182.28 116.46C176.79 100.67 169.86 87.04 161.02 73.89C184.43 76.52 204.02 85.13 218.36 99.72L229.58 70.3L204.74 48.3L237.95 45.91L251.32 14.83L264.7 45.91L297.91 48.3L273.06 70.3L284.29 99.72C298.63 84.89 318.22 76.28 341.63 73.89C332.79 87.28 325.86 100.91 320.37 116.46C333.27 105.93 349.27 99.48 367.67 98.28C356.68 112.63 346.88 127.7 339.96 143.96ZM359.55 159.98C377.94 152.33 400.4 154 419.51 166.43C422.62 148.5 432.17 132.72 446.03 123.15C447.7 121.72 449.85 123.15 449.61 125.3C446.75 163.09 468.72 195.85 495.72 224.54C467.77 232.91 443.88 197.04 407.8 209.48C394.9 190.11 378.419 173.37 359.55 159.98ZM277.36 107.13C276.41 106.41 251.32 87.28 251.32 87.28C251.32 87.28 226.24 106.41 225.28 107.13C224.33 107.85 224.81 109.04 226 108.8C228.15 108.33 238.9 106.65 251.32 106.65C263.75 106.65 274.5 108.33 276.65 108.8C277.84 109.04 278.32 107.85 277.36 107.13ZM232.93 233.39C232.93 233.39 231.5 233.87 231.26 235.06C236.51 239.13 240.1 248.46 251.09 248.46C262.08 248.46 265.66 239.13 270.91 235.06C270.68 233.87 269.24 233.39 269.24 233.39C269.24 233.39 262.31 235.06 251.09 235.06C239.86 235.06 232.93 233.39 232.93 233.39ZM251.32 217.85C248.22 217.85 247.5 216.65 245.59 216.65C243.68 216.65 239.86 218.33 238.9 219.76C238.9 220.48 239.14 221.2 239.86 221.67C244.4 222.39 246.31 224.78 251.56 224.78C256.82 224.78 258.73 222.39 263.27 221.67C263.75 221.2 263.99 220.48 264.22 219.76C263.51 218.33 259.45 216.65 257.54 216.65C254.91 216.65 254.19 217.85 251.32 217.85ZM257.54 216.65C254.91 216.65 254.19 217.85 251.32 217.85C248.22 217.85 247.5 216.65 245.59 216.65C243.68 216.65 239.86 218.33 238.9 219.76C238.9 220.48 239.14 221.2 239.86 221.67C244.4 222.39 246.31 224.78 251.56 224.78C256.82 224.78 258.73 222.39 263.27 221.67C263.75 221.2 263.99 220.48 264.22 219.76C263.51 218.33 259.45 216.65 257.54 216.65ZM269.24 233.39C269.24 233.39 262.31 235.06 251.09 235.06C239.86 235.06 232.93 233.39 232.93 233.39C232.93 233.39 231.5 233.87 231.26 235.06C236.51 239.13 240.1 248.46 251.09 248.46C262.08 248.46 265.66 239.13 270.91 235.06C270.68 233.87 269.24 233.39 269.24 233.39ZM277.36 107.13C276.41 106.41 251.32 87.28 251.32 87.28C251.32 87.28 226.24 106.41 225.28 107.13C224.33 107.85 224.81 109.04 226 108.8C228.15 108.33 238.9 106.65 251.32 106.65C263.75 106.65 274.5 108.33 276.65 108.8C277.84 109.04 278.32 107.85 277.36 107.13ZM277.36 107.13C276.41 106.41 251.32 87.28 251.32 87.28C251.32 87.28 226.24 106.41 225.28 107.13C224.33 107.85 224.81 109.04 226 108.8C228.15 108.33 238.9 106.65 251.32 106.65C263.75 106.65 274.5 108.33 276.65 108.8C277.84 109.04 278.32 107.85 277.36 107.13ZM269.24 233.39C269.24 233.39 262.31 235.06 251.09 235.06C239.86 235.06 232.93 233.39 232.93 233.39C232.93 233.39 231.5 233.87 231.26 235.06C236.51 239.13 240.1 248.46 251.09 248.46C262.08 248.46 265.66 239.13 270.91 235.06C270.68 233.87 269.24 233.39 269.24 233.39ZM257.54 216.65C254.91 216.65 254.19 217.85 251.32 217.85C248.22 217.85 247.5 216.65 245.59 216.65C243.68 216.65 239.86 218.33 238.9 219.76C238.9 220.48 239.14 221.2 239.86 221.67C244.4 222.39 246.31 224.78 251.56 224.78C256.82 224.78 258.73 222.39 263.27 221.67C263.75 221.2 263.99 220.48 264.22 219.76C263.51 218.33 259.45 216.65 257.54 216.65ZM257.54 216.65C254.91 216.65 254.19 217.85 251.32 217.85C248.22 217.85 247.5 216.65 245.59 216.65C243.68 216.65 239.86 218.33 238.9 219.76C238.9 220.48 239.14 221.2 239.86 221.67C244.4 222.39 246.31 224.78 251.56 224.78C256.82 224.78 258.73 222.39 263.27 221.67C263.75 221.2 263.99 220.48 264.22 219.76C263.51 218.33 259.45 216.65 257.54 216.65ZM269.24 233.39C269.24 233.39 262.31 235.06 251.09 235.06C239.86 235.06 232.93 233.39 232.93 233.39C232.93 233.39 231.5 233.87 231.26 235.06C236.51 239.13 240.1 248.46 251.09 248.46C262.08 248.46 265.66 239.13 270.91 235.06C270.68 233.87 269.24 233.39 269.24 233.39ZM277.36 107.13C276.41 106.41 251.32 87.28 251.32 87.28C251.32 87.28 226.24 106.41 225.28 107.13C224.33 107.85 224.81 109.04 226 108.8C228.15 108.33 238.9 106.65 251.32 106.65C263.75 106.65 274.5 108.33 276.65 108.8C277.84 109.04 278.32 107.85 277.36 107.13ZM277.36 107.13C276.41 106.41 251.32 87.28 251.32 87.28C251.32 87.28 226.24 106.41 225.28 107.13C224.33 107.85 224.81 109.04 226 108.8C228.15 108.33 238.9 106.65 251.32 106.65C263.75 106.65 274.5 108.33 276.65 108.8C277.84 109.04 278.32 107.85 277.36 107.13ZM269.24 233.39C269.24 233.39 262.31 235.06 251.09 235.06C239.86 235.06 232.93 233.39 232.93 233.39C232.93 233.39 231.5 233.87 231.26 235.06C236.51 239.13 240.1 248.46 251.09 248.46C262.08 248.46 265.66 239.13 270.91 235.06C270.68 233.87 269.24 233.39 269.24 233.39ZM257.54 216.65C254.91 216.65 254.19 217.85 251.32 217.85C248.22 217.85 247.5 216.65 245.59 216.65C243.68 216.65 239.86 218.33 238.9 219.76C238.9 220.48 239.14 221.2 239.86 221.67C244.4 222.39 246.31 224.78 251.56 224.78C256.82 224.78 258.73 222.39 263.27 221.67C263.75 221.2 263.99 220.48 264.22 219.76C263.51 218.33 259.45 216.65 257.54 216.65ZM257.54 216.65C254.91 216.65 254.19 217.85 251.32 217.85C248.22 217.85 247.5 216.65 245.59 216.65C243.68 216.65 239.86 218.33 238.9 219.76C238.9 220.48 239.14 221.2 239.86 221.67C244.4 222.39 246.31 224.78 251.56 224.78C256.82 224.78 258.73 222.39 263.27 221.67C263.75 221.2 263.99 220.48 264.22 219.76C263.51 218.33 259.45 216.65 257.54 216.65ZM269.24 233.39C269.24 233.39 262.31 235.06 251.09 235.06C239.86 235.06 232.93 233.39 232.93 233.39C232.93 233.39 231.5 233.87 231.26 235.06C236.51 239.13 240.1 248.46 251.09 248.46C262.08 248.46 265.66 239.13 270.91 235.06C270.68 233.87 269.24 233.39 269.24 233.39ZM277.36 107.13C276.41 106.41 251.32 87.28 251.32 87.28C251.32 87.28 226.24 106.41 225.28 107.13C224.33 107.85 224.81 109.04 226 108.8C228.15 108.33 238.9 106.65 251.32 106.65C263.75 106.65 274.5 108.33 276.65 108.8C277.84 109.04 278.32 107.85 277.36 107.13ZM277.36 107.13C276.41 106.41 251.32 87.28 251.32 87.28C251.32 87.28 226.24 106.41 225.28 107.13C224.33 107.85 224.81 109.04 226 108.8C228.15 108.33 238.9 106.65 251.32 106.65C263.75 106.65 274.5 108.33 276.65 108.8C277.84 109.04 278.32 107.85 277.36 107.13ZM269.24 233.39C269.24 233.39 262.31 235.06 251.09 235.06C239.86 235.06 232.93 233.39 232.93 233.39C232.93 233.39 231.5 233.87 231.26 235.06C236.51 239.13 240.1 248.46 251.09 248.46C262.08 248.46 265.66 239.13 270.91 235.06C270.68 233.87 269.24 233.39 269.24 233.39ZM257.54 216.65C254.91 216.65 254.19 217.85 251.32 217.85C248.22 217.85 247.5 216.65 245.59 216.65C243.68 216.65 239.86 218.33 238.9 219.76C238.9 220.48 239.14 221.2 239.86 221.67C244.4 222.39 246.31 224.78 251.56 224.78C256.82 224.78 258.73 222.39 263.27 221.67C263.75 221.2 263.99 220.48 264.22 219.76C263.51 218.33 259.45 216.65 257.54 216.65ZM257.54 216.65C254.91 216.65 254.19 217.85 251.32 217.85C248.22 217.85 247.5 216.65 245.59 216.65C243.68 216.65 239.86 218.33 238.9 219.76C238.9 220.48 239.14 221.2 239.86 221.67C244.4 222.39 246.31 224.78 251.56 224.78C256.82 224.78 258.73 222.39 263.27 221.67C263.75 221.2 263.99 220.48 264.22 219.76C263.51 218.33 259.45 216.65 257.54 216.65ZM269.24 233.39C269.24 233.39 262.31 235.06 251.09 235.06C239.86 235.06 232.93 233.39 232.93 233.39C232.93 233.39 231.5 233.87 231.26 235.06C236.51 239.13 240.1 248.46 251.09 248.46C262.08 248.46 265.66 239.13 270.91 235.06C270.68 233.87 269.24 233.39 269.24 233.39ZM277.36 107.13C276.41 106.41 251.32 87.28 251.32 87.28C251.32 87.28 226.24 106.41 225.28 107.13C224.33 107.85 224.81 109.04 226 108.8C228.15 108.33 238.9 106.65 251.32 106.65C263.75 106.65 274.5 108.33 276.65 108.8C277.84 109.04 278.32 107.85 277.36 107.13Z" fill="#00643C"/>
</svg>
